# Blender v2.93.1 OBJ File: '3month.blend'
# www.blender.org
mtllib cubes.mtl
o PinkCube_立方体
v -1.000000 -0.982040 1.000000
v -1.000000 1.017961 1.000000
v -1.000000 -0.982040 -1.000000
v -1.000000 1.017961 -1.000000
v 1.000000 -0.982040 1.000000
v 1.000000 1.017961 1.000000
v 1.000000 -0.982040 -1.000000
v 1.000000 1.017961 -1.000000
v -1.724278 0.479015 -1.934211
v -1.724278 2.479015 -1.934211
v -1.724278 0.479015 1.934211
v -1.724278 2.479015 1.934211
v 1.724278 0.479015 -1.934211
v 1.724278 2.479015 -1.934211
v 1.724278 0.479015 1.934211
v 1.724278 2.479015 1.934211
vt 0.625000 0.000000
vt 0.375000 0.250000
vt 0.375000 0.000000
vt 0.625000 0.250000
vt 0.375000 0.500000
vt 0.625000 0.500000
vt 0.375000 0.750000
vt 0.625000 0.750000
vt 0.375000 1.000000
vt 0.125000 0.750000
vt 0.125000 0.500000
vt 0.875000 0.500000
vt 0.625000 1.000000
vt 0.875000 0.750000
vt 0.625000 0.000000
vt 0.375000 0.250000
vt 0.375000 0.000000
vt 0.625000 0.250000
vt 0.375000 0.500000
vt 0.625000 0.500000
vt 0.375000 0.750000
vt 0.625000 0.750000
vt 0.375000 1.000000
vt 0.125000 0.750000
vt 0.125000 0.500000
vt 0.875000 0.500000
vt 0.625000 1.000000
vt 0.875000 0.750000
vn -1.0000 0.0000 0.0000
vn 0.0000 0.0000 -1.0000
vn 1.0000 0.0000 0.0000
vn 0.0000 0.0000 1.0000
vn 0.0000 -1.0000 0.0000
vn 0.0000 1.0000 0.0000
usemtl cubeMat1
s off
f 2/1/1 3/2/1 1/3/1
f 4/4/2 7/5/2 3/2/2
f 8/6/3 5/7/3 7/5/3
f 6/8/4 1/9/4 5/7/4
f 7/5/5 1/10/5 3/11/5
f 4/12/6 6/8/6 8/6/6
f 2/1/1 4/4/1 3/2/1
f 4/4/2 8/6/2 7/5/2
f 8/6/3 6/8/3 5/7/3
f 6/8/4 2/13/4 1/9/4
f 7/5/5 5/7/5 1/10/5
f 4/12/6 2/14/6 6/8/6
usemtl cubeMat2
f 10/15/3 11/16/3 9/17/3
f 12/18/2 15/19/2 11/16/2
f 16/20/1 13/21/1 15/19/1
f 14/22/4 9/23/4 13/21/4
f 15/19/6 9/24/6 11/25/6
f 12/26/5 14/22/5 16/20/5
f 10/15/3 12/18/3 11/16/3
f 12/18/2 16/20/2 15/19/2
f 16/20/1 14/22/1 13/21/1
f 14/22/4 10/27/4 9/23/4
f 15/19/6 13/21/6 9/24/6
f 12/26/5 10/28/5 14/22/5
