# Blender 3.1.0
# www.blender.org
mtllib cubes.mtl
o PinkCube
v -1.000000 1.017961 1.000000
v -1.000000 -0.982040 -1.000000
v -1.000000 -0.982040 1.000000
v -1.000000 1.017961 -1.000000
v 1.000000 -0.982040 -1.000000
v 1.000000 1.017961 -1.000000
v 1.000000 -0.982040 1.000000
v 1.000000 1.017961 1.000000
vn -1.0000 -0.0000 -0.0000
vn -0.0000 -0.0000 -1.0000
vn 1.0000 -0.0000 -0.0000
vn -0.0000 -0.0000 1.0000
vn -0.0000 -1.0000 -0.0000
vn -0.0000 1.0000 -0.0000
vt 0.625000 0.000000
vt 0.625000 1.000000
vt 0.875000 0.750000
vt 0.125000 0.500000
vt 0.375000 0.250000
vt 0.375000 0.000000
vt 0.375000 1.000000
vt 0.125000 0.750000
vt 0.625000 0.250000
vt 0.875000 0.500000
vt 0.375000 0.500000
vt 0.625000 0.500000
vt 0.375000 0.750000
vt 0.625000 0.750000
s 1
usemtl cubeMat1
f 1/1/1 2/5/1 3/6/1
f 4/9/2 5/11/2 2/5/2
f 6/12/3 7/13/3 5/11/3
f 8/14/4 3/7/4 7/13/4
f 5/11/5 3/8/5 2/4/5
f 4/10/6 8/14/6 6/12/6
f 1/1/1 4/9/1 2/5/1
f 4/9/2 6/12/2 5/11/2
f 6/12/3 8/14/3 7/13/3
f 8/14/4 1/2/4 3/7/4
f 5/11/5 7/13/5 3/8/5
f 4/10/6 1/3/6 8/14/6
o BlueCube
v -1.724278 2.479015 -1.934211
v -1.724278 0.479015 1.934211
v -1.724278 0.479015 -1.934211
v -1.724278 2.479015 1.934211
v 1.724278 0.479015 1.934211
v 1.724278 2.479015 1.934211
v 1.724278 0.479015 -1.934211
v 1.724278 2.479015 -1.934211
vn 1.0000 -0.0000 -0.0000
vn -0.0000 -0.0000 -1.0000
vn -1.0000 -0.0000 -0.0000
vn -0.0000 -0.0000 1.0000
vn -0.0000 1.0000 -0.0000
vn -0.0000 -1.0000 -0.0000
vt 0.625000 0.000000
vt 0.625000 1.000000
vt 0.875000 0.750000
vt 0.125000 0.500000
vt 0.375000 0.250000
vt 0.375000 0.000000
vt 0.375000 1.000000
vt 0.125000 0.750000
vt 0.625000 0.250000
vt 0.875000 0.500000
vt 0.375000 0.500000
vt 0.625000 0.500000
vt 0.375000 0.750000
vt 0.625000 0.750000
s 1
usemtl cubeMat2
f 9/15/7 10/19/7 11/20/7
f 12/23/8 13/25/8 10/19/8
f 14/26/9 15/27/9 13/25/9
f 16/28/10 11/21/10 15/27/10
f 13/25/11 11/22/11 10/18/11
f 12/24/12 16/28/12 14/26/12
f 9/15/7 12/23/7 10/19/7
f 12/23/8 14/26/8 13/25/8
f 14/26/9 16/28/9 15/27/9
f 16/28/10 9/16/10 11/21/10
f 13/25/11 15/27/11 11/22/11
f 12/24/12 9/17/12 16/28/12
